<svg xmlns="http://www.w3.org/2000/svg" id="Capa_1" data-name="Capa 1" viewBox="0 0 2000 2000" class="coalition-flag--icon" style="fill: #fff">
  <defs>
    <style>
      .cls-1 {
        fill: #fff;
        stroke: #fff;
        stroke-miterlimit: 10;
        stroke-width: 7px;
      }
    </style>
  </defs>
  <g id="TIAMANT">
    <path class="cls-1" d="m805.15,586.6c72.8-118.61,118.97-245.64,132.04-382.65,1.05-11.03,3.54-21.96,5.7-32.88,1.59-8.04.83-18.31.2-28.04h-98.19c-.17,8.83-1.04,19.86-2.04,33.73-10.56,145.78-60.77,278.33-144.77,400.42-87.04,126.51-199.52,223.07-336.77,290.83l46.22,80.06c22.58-11.54,44.87-23.83,66.79-37.02,137.66-82.85,248.88-190.96,330.81-324.44Z"></path>
    <path class="cls-1" d="m406.32,145.73c-22.74,163.1-114.74,288.76-256.01,356.77l45.96,79.61c58.11-28.73,110.78-67.47,158.19-116.37,88.93-91.72,135.77-200.16,144.9-322.72h-92.72c-.11.9-.19,1.78-.32,2.71Z"></path>
    <path class="cls-1" d="m1516.24,188.89c29.22,172.45,147.81,320.17,308.81,397.54l45.51-78.83c-89.1-40.06-159.13-106.54-210.9-195.98-29.93-51.7-47.88-108.38-50.6-168.61h-91.44c.05,14.94-3.77,31.83-1.39,45.87Z"></path>
    <path class="cls-1" d="m714.99,921.88c0-9.57,0-19.15,0-35.51-32.55,25.69-60.06,47.42-87.6,69.12-8.37,6.59-6.55,15.52-6.55,24.11.06,112.7.08,225.4.12,338.1l93.91,162.66c.04-186.16.08-372.32.12-558.47Z"></path>
    <path class="cls-1" d="m716.91,163.13c.55-7.77,1.05-14.35,1.63-20.11h-92.75c.26,12.53-2.08,29.62-5.71,53.14-34.56,224.43-159.29,386.47-363.72,490.03l44.91,77.78c73.4-36.96,140.65-86.01,201.74-146.85,127.9-127.39,201.44-278.09,213.9-454Z"></path>
    <path class="cls-1" d="m39.93,311.32l50,86.61c100.08-47.52,171.74-141.71,186.81-254.9h-105.16c-13.65,73.09-61.74,136.14-131.65,168.29Z"></path>
    <path class="cls-1" d="m492.52,1043.31c-8.06,3.4-16.05,6.85-24.01,10.31l26.02,45.07c0-8.85,0-17.69,0-26.54,0-8.64-1.18-17.27-2.02-28.84Z"></path>
    <path class="cls-1" d="m1167.06,792.08c.06-28.3-5.43-51.74-24.27-74.73-22.81-27.83-40.93-59.06-62.83-91.39-13.91,17.18-8.42,33.58-8.43,48.46-.31,405.52-.53,811.05.35,1216.57l94.64-163.92c-.05-311.66-.09-623.32.55-934.98Z"></path>
    <path class="cls-1" d="m1390.99,1038.47c1.59-75.74-39-109.98-97.36-150.7,0,208.17-.12,414.12-.02,619.14l93.94-162.71c.37-101.93,1.3-203.84,3.43-305.73Z"></path>
    <path class="cls-1" d="m1743.33,181.4c19.98,93.08,94.27,178.86,188.14,220.72l49.79-86.23c-59.53-26.22-112.43-78.87-131.83-138.52-4.58-14.08-8.17-25.31-10.38-34.34h-97.18c.6,12.92-.98,26.97,1.46,38.37Z"></path>
    <path class="cls-1" d="m1552.41,1058.67c-3.89-1.91-7.81-3.74-11.69-5.69-18.3-9.2-25.92-7.68-25.67,13,.23,19.1.16,38.21.06,57.31l37.31-64.62Z"></path>
    <path class="cls-1" d="m944.64,672.29c0-18.21,0-36.42-7.76-57.08-23.49,33.65-45.71,68.18-70.9,100.67-18.69,24.1-24.42,49.09-24.34,78.65.8,302.46.79,604.92,1.16,907.39l101.6,175.98c.07-401.87.16-803.74.24-1205.61Z"></path>
    <path class="cls-1" d="m1294.98,190.85c38.23,259.6,194.26,465.69,425.31,577.04l43.74-75.76c-77.44-37.32-146.75-89.02-208.1-154.15-105.73-112.24-161.15-245.26-168.97-394.96h-89.43c-.71,15.5-4.7,33.21-2.55,47.83Z"></path>
    <path class="cls-1" d="m1293.39,704.62c89.6,105.55,196.54,187.97,320.4,247.74l45.69-79.14c-46.72-22.97-91.79-50.01-135.13-81.31-154.97-111.91-261.25-256.33-318.86-431.52-23.2-70.56-38.5-142.89-39.5-217.35h-94.05c5.39,210.56,81.95,397.28,221.44,561.59Z"></path>
  </g>
</svg>